# xmcd
#
# Track frame offsets:
#	182
#	19742
#	36592
#	51792
#
# Disc length: 941 seconds
#
# Revision: 0
# Processed by: cddbd v1.5.2PL0 Copyright (c) Steve Scherf et al.
# Submitted via: EZCDAudioConverter 2.2.2.1
#
DISCID=2f03ab04
DTITLE=湯寶如 - 我和秋天有個約會
DYEAR=1993
DGENRE=粵語流行曲
TTITLE0=湯寶如 - 我和秋天有個約會（Summer Remix）
TTITLE1=湯寶如 - 絕對是個夢
TTITLE2=湯寶如 - 活著就是等待（Unplugged Version）
TTITLE3=湯寶如、張學友 - 相思風雨中
EXTD=
EXTT0=
EXTT1=
EXTT2=
EXTT3=
PLAYORDER=
